<mxfile host="app.diagrams.net" modified="2024-03-12T08:34:26.725Z" agent="Mozilla/5.0 (Macintosh; Intel Mac OS X 10_15_7) AppleWebKit/605.1.15 (KHTML, like Gecko) Version/17.3.1 Safari/605.1.15" etag="G4fc-SBO8bw6hIvUFy5r" version="24.0.5" type="github">
  <diagram name="Page-1" id="x6cytCCpORNPpseuYlDI">
    <mxGraphModel dx="864" dy="830" grid="1" gridSize="10" guides="1" tooltips="1" connect="1" arrows="1" fold="1" page="1" pageScale="1" pageWidth="827" pageHeight="1169" math="0" shadow="0">
      <root>
        <mxCell id="0" />
        <mxCell id="1" parent="0" />
        <mxCell id="CqF4JPFSEOstVBrKQT4w-14" style="edgeStyle=orthogonalEdgeStyle;rounded=0;orthogonalLoop=1;jettySize=auto;html=1;" edge="1" parent="1" source="CqF4JPFSEOstVBrKQT4w-1" target="CqF4JPFSEOstVBrKQT4w-13">
          <mxGeometry relative="1" as="geometry" />
        </mxCell>
        <mxCell id="CqF4JPFSEOstVBrKQT4w-1" value="Home" style="rounded=0;whiteSpace=wrap;html=1;" vertex="1" parent="1">
          <mxGeometry x="354" y="20" width="120" height="60" as="geometry" />
        </mxCell>
        <mxCell id="CqF4JPFSEOstVBrKQT4w-2" value="About me" style="rounded=0;whiteSpace=wrap;html=1;" vertex="1" parent="1">
          <mxGeometry x="80" y="240" width="120" height="60" as="geometry" />
        </mxCell>
        <mxCell id="CqF4JPFSEOstVBrKQT4w-19" style="edgeStyle=orthogonalEdgeStyle;rounded=0;orthogonalLoop=1;jettySize=auto;html=1;" edge="1" parent="1" source="CqF4JPFSEOstVBrKQT4w-4" target="CqF4JPFSEOstVBrKQT4w-20">
          <mxGeometry relative="1" as="geometry">
            <mxPoint x="294" y="380" as="targetPoint" />
          </mxGeometry>
        </mxCell>
        <mxCell id="CqF4JPFSEOstVBrKQT4w-22" style="edgeStyle=orthogonalEdgeStyle;rounded=0;orthogonalLoop=1;jettySize=auto;html=1;entryX=0.5;entryY=0;entryDx=0;entryDy=0;" edge="1" parent="1" source="CqF4JPFSEOstVBrKQT4w-4" target="CqF4JPFSEOstVBrKQT4w-21">
          <mxGeometry relative="1" as="geometry" />
        </mxCell>
        <mxCell id="CqF4JPFSEOstVBrKQT4w-4" value="Projects" style="rounded=0;whiteSpace=wrap;html=1;" vertex="1" parent="1">
          <mxGeometry x="234" y="240" width="120" height="60" as="geometry" />
        </mxCell>
        <mxCell id="CqF4JPFSEOstVBrKQT4w-7" value="Contact Me" style="rounded=0;whiteSpace=wrap;html=1;" vertex="1" parent="1">
          <mxGeometry x="390" y="240" width="120" height="60" as="geometry" />
        </mxCell>
        <mxCell id="CqF4JPFSEOstVBrKQT4w-9" value="Skills" style="rounded=0;whiteSpace=wrap;html=1;" vertex="1" parent="1">
          <mxGeometry x="550" y="240" width="120" height="60" as="geometry" />
        </mxCell>
        <mxCell id="CqF4JPFSEOstVBrKQT4w-15" style="edgeStyle=orthogonalEdgeStyle;rounded=0;orthogonalLoop=1;jettySize=auto;html=1;" edge="1" parent="1" source="CqF4JPFSEOstVBrKQT4w-13" target="CqF4JPFSEOstVBrKQT4w-2">
          <mxGeometry relative="1" as="geometry" />
        </mxCell>
        <mxCell id="CqF4JPFSEOstVBrKQT4w-16" style="edgeStyle=orthogonalEdgeStyle;rounded=0;orthogonalLoop=1;jettySize=auto;html=1;entryX=0.5;entryY=0;entryDx=0;entryDy=0;" edge="1" parent="1" source="CqF4JPFSEOstVBrKQT4w-13" target="CqF4JPFSEOstVBrKQT4w-4">
          <mxGeometry relative="1" as="geometry">
            <Array as="points">
              <mxPoint x="294" y="120" />
            </Array>
          </mxGeometry>
        </mxCell>
        <mxCell id="CqF4JPFSEOstVBrKQT4w-17" style="edgeStyle=orthogonalEdgeStyle;rounded=0;orthogonalLoop=1;jettySize=auto;html=1;entryX=0.5;entryY=0;entryDx=0;entryDy=0;" edge="1" parent="1" source="CqF4JPFSEOstVBrKQT4w-13" target="CqF4JPFSEOstVBrKQT4w-7">
          <mxGeometry relative="1" as="geometry">
            <Array as="points">
              <mxPoint x="480" y="120" />
              <mxPoint x="480" y="190" />
              <mxPoint x="450" y="190" />
            </Array>
          </mxGeometry>
        </mxCell>
        <mxCell id="CqF4JPFSEOstVBrKQT4w-18" style="edgeStyle=orthogonalEdgeStyle;rounded=0;orthogonalLoop=1;jettySize=auto;html=1;entryX=0.5;entryY=0;entryDx=0;entryDy=0;" edge="1" parent="1" source="CqF4JPFSEOstVBrKQT4w-13" target="CqF4JPFSEOstVBrKQT4w-9">
          <mxGeometry relative="1" as="geometry" />
        </mxCell>
        <mxCell id="CqF4JPFSEOstVBrKQT4w-13" value="Navbar" style="ellipse;whiteSpace=wrap;html=1;" vertex="1" parent="1">
          <mxGeometry x="354" y="100" width="120" height="40" as="geometry" />
        </mxCell>
        <mxCell id="CqF4JPFSEOstVBrKQT4w-20" value="Cool Website 01" style="rounded=0;whiteSpace=wrap;html=1;" vertex="1" parent="1">
          <mxGeometry x="310" y="380" width="120" height="60" as="geometry" />
        </mxCell>
        <mxCell id="CqF4JPFSEOstVBrKQT4w-21" value="Cool Website 01" style="rounded=0;whiteSpace=wrap;html=1;" vertex="1" parent="1">
          <mxGeometry x="160" y="380" width="120" height="60" as="geometry" />
        </mxCell>
      </root>
    </mxGraphModel>
  </diagram>
</mxfile>
